<svg height="511pt" viewBox="1 -13 511.999 511" width="511pt" xmlns="http://www.w3.org/2000/svg"><path d="m137.964844 346.441406h-79.257813v-52.597656c0-14.722656 11.933594-26.660156 26.660157-26.660156h25.933593c14.726563 0 26.660157 11.9375 26.660157 26.660156v52.597656zm0 0" fill="#e63950"/><path d="m216.796875 346.441406h-79.257813v-52.597656c0-14.722656 11.933594-26.660156 26.660157-26.660156h25.933593c14.726563 0 26.660157 11.9375 26.660157 26.660156v52.597656zm0 0" fill="#e63950"/><path d="m295.628906 346.441406h-79.257812v-52.597656c0-14.722656 11.9375-26.660156 26.660156-26.660156h25.9375c14.722656 0 26.660156 11.9375 26.660156 26.660156zm0 0" fill="#e63950"/><path d="m374.460938 346.441406h-79.257813v-52.597656c0-14.722656 11.9375-26.660156 26.660156-26.660156h25.9375c14.722657 0 26.660157 11.9375 26.660157 26.660156zm0 0" fill="#e63950"/><path d="m453.292969 346.441406h-79.257813v-52.597656c0-14.722656 11.9375-26.660156 26.660156-26.660156h25.9375c14.722657 0 26.660157 11.9375 26.660157 26.660156zm0 0" fill="#e63950"/><path d="m137.21875 293.847656v52.59375h-18.914062v-52.59375c0-14.726562-11.941407-26.667968-26.667969-26.667968h18.925781c14.722656 0 26.65625 11.941406 26.65625 26.667968zm0 0" fill="#cc2e43"/><path d="m216.058594 293.847656v52.59375h-18.925782v-52.59375c0-14.726562-11.933593-26.667968-26.65625-26.667968h18.914063c14.726563 0 26.667969 11.941406 26.667969 26.667968zm0 0" fill="#cc2e43"/><path d="m294.886719 293.847656v52.59375h-18.921875v-52.59375c0-14.726562-11.933594-26.667968-26.65625-26.667968h18.921875c14.722656 0 26.65625 11.941406 26.65625 26.667968zm0 0" fill="#cc2e43"/><path d="m373.714844 293.847656v52.59375h-18.914063v-52.59375c0-14.726562-11.941406-26.667968-26.664062-26.667968h18.921875c14.726562 0 26.65625 11.941406 26.65625 26.667968zm0 0" fill="#cc2e43"/><path d="m453.292969 293.847656v52.59375h-18.921875v-52.59375c0-14.726562-11.933594-26.667968-26.65625-26.667968h18.914062c14.722656 0 26.664063 11.941406 26.664063 26.667968zm0 0" fill="#cc2e43"/><path d="m98.179688 397.585938h-79.257813v-52.597657c0-14.722656 11.9375-26.660156 26.660156-26.660156h25.9375c14.722657 0 26.660157 11.9375 26.660157 26.660156zm0 0" fill="#ec5569"/><path d="m177.011719 397.585938h-79.253907v-52.597657c0-14.722656 11.933594-26.660156 26.65625-26.660156h25.9375c14.722657 0 26.660157 11.9375 26.660157 26.660156zm0 0" fill="#ec5569"/><path d="m255.847656 397.585938h-79.257812v-52.597657c0-14.722656 11.933594-26.660156 26.660156-26.660156h25.933594c14.726562 0 26.660156 11.9375 26.660156 26.660156v52.597657zm0 0" fill="#ec5569"/><path d="m334.679688 397.585938h-79.257813v-52.597657c0-14.722656 11.933594-26.660156 26.660156-26.660156h25.933594c14.726563 0 26.660156 11.9375 26.660156 26.660156v52.597657zm0 0" fill="#ec5569"/><path d="m413.511719 397.585938h-79.257813v-52.597657c0-14.722656 11.9375-26.660156 26.660156-26.660156h25.9375c14.722657 0 26.660157 11.9375 26.660157 26.660156zm0 0" fill="#ec5569"/><path d="m493.082031 397.585938h-79.257812v-52.597657c0-14.722656 11.9375-26.660156 26.660156-26.660156h25.9375c14.722656 0 26.660156 11.9375 26.660156 26.660156zm0 0" fill="#ec5569"/><g fill="#e63950"><path d="m98.179688 344.992188v52.59375h-18.925782v-52.59375c0-14.726563-11.933594-26.667969-26.65625-26.667969h18.921875c14.714844 0 26.660157 11.941406 26.660157 26.667969zm0 0"/><path d="m177.007812 344.992188v52.59375h-18.914062v-52.59375c0-14.726563-11.941406-26.667969-26.667969-26.667969h18.925781c14.722657 0 26.65625 11.941406 26.65625 26.667969zm0 0"/><path d="m255.847656 344.992188v52.59375h-18.925781v-52.59375c0-14.726563-11.933594-26.667969-26.65625-26.667969h18.914063c14.722656 0 26.667968 11.941406 26.667968 26.667969zm0 0"/><path d="m334.675781 344.992188v52.59375h-18.925781v-52.59375c0-14.726563-11.929688-26.667969-26.65625-26.667969h18.925781c14.722657 0 26.65625 11.941406 26.65625 26.667969zm0 0"/><path d="m413.503906 344.992188v52.59375h-18.914062v-52.59375c0-14.726563-11.941406-26.667969-26.664063-26.667969h18.921875c14.722656 0 26.65625 11.941406 26.65625 26.667969zm0 0"/><path d="m493.082031 344.992188v52.59375h-18.921875v-52.59375c0-14.726563-11.933594-26.667969-26.65625-26.667969h18.914063c14.722656 0 26.664062 11.941406 26.664062 26.667969zm0 0"/></g><path d="m144.53125 15.019531c-62.082031-5.613281-120.5625-12.347656-138.746094-14.484375-3.082031-.363281-5.785156 2.046875-5.785156 5.152344v236.164062c0 3.105469 2.703125 5.515626 5.785156 5.152344 18.183594-2.136718 76.664063-8.871094 138.746094-14.484375 74.15625-6.703125 148.78125-6.703125 222.9375 0 62.082031 5.613281 120.5625 12.347657 138.746094 14.484375 3.082031.363282 5.785156-2.046875 5.785156-5.152344v-236.164062c0-3.105469-2.703125-5.515625-5.785156-5.152344-18.183594 2.136719-76.664063 8.871094-138.746094 14.484375-74.15625 6.703125-148.78125 6.703125-222.9375 0zm0 0" fill="#706f6f"/><path d="m511.996094 5.683594v236.167968c0 3.101563-2.699219 5.515626-5.78125 5.15625-3.953125-.464843-9.792969-1.140624-17.15625-1.984374v-242.503907c7.363281-.839843 13.203125-1.519531 17.15625-1.980469 3.082031-.371093 5.78125 2.042969 5.78125 5.144532zm0 0" fill="#565656"/><path d="m162.117188 50.804688c-51.421876-3.703126-99.910157-8.132813-116.066407-9.644532-3.042969-.285156-5.664062 2.109375-5.664062 5.164063v154.890625c0 3.054687 2.621093 5.449218 5.664062 5.164062 16.15625-1.511718 64.644531-5.941406 116.066407-9.644531 62.503906-4.5 125.261718-4.5 187.765624 0 51.417969 3.703125 99.90625 8.132813 116.066407 9.644531 3.042969.285156 5.660156-2.109375 5.660156-5.164062v-154.890625c0-3.054688-2.617187-5.449219-5.660156-5.164063-16.160157 1.511719-64.648438 5.941406-116.066407 9.644532-62.503906 4.5-125.261718 4.5-187.765624 0zm0 0" fill="#efe2dd"/><path d="m471.613281 46.324219v154.886719c0 3.058593-2.621093 5.453124-5.660156 5.164062-4.167969-.390625-10.484375-.964844-18.449219-1.683594v-161.835937c7.964844-.730469 14.28125-1.304688 18.449219-1.695313 3.039063-.289062 5.660156 2.113282 5.660156 5.164063zm0 0" fill="#e1d3ce"/><path d="m98.175781 465.460938h-79.253906v-63.941407c0-14.726562 11.933594-26.660156 26.65625-26.660156h25.9375c14.722656 0 26.660156 11.933594 26.660156 26.660156zm0 0" fill="#e63950"/><path d="m177.011719 465.460938h-79.257813v-63.941407c0-14.726562 11.933594-26.660156 26.660156-26.660156h25.933594c14.726563 0 26.660156 11.933594 26.660156 26.660156v63.941407zm0 0" fill="#e63950"/><path d="m255.84375 465.460938h-79.257812v-63.941407c0-14.726562 11.9375-26.660156 26.660156-26.660156h25.9375c14.722656 0 26.660156 11.933594 26.660156 26.660156zm0 0" fill="#e63950"/><path d="m334.675781 465.460938h-79.257812v-63.941407c0-14.726562 11.9375-26.660156 26.660156-26.660156h25.9375c14.722656 0 26.660156 11.933594 26.660156 26.660156zm0 0" fill="#e63950"/><path d="m413.507812 465.460938h-79.253906v-63.941407c0-14.726562 11.933594-26.660156 26.65625-26.660156h25.9375c14.722656 0 26.660156 11.933594 26.660156 26.660156zm0 0" fill="#e63950"/><path d="m493.078125 465.460938h-79.253906v-63.941407c0-14.726562 11.933593-26.660156 26.660156-26.660156h25.933594c14.726562 0 26.660156 11.933594 26.660156 26.660156zm0 0" fill="#e63950"/><path d="m98.179688 401.523438v63.9375h-18.925782v-63.9375c0-14.726563-11.933594-26.667969-26.65625-26.667969h18.921875c14.714844 0 26.660157 11.941406 26.660157 26.667969zm0 0" fill="#cc2e43"/><path d="m177.007812 401.523438v63.9375h-18.914062v-63.9375c0-14.726563-11.941406-26.667969-26.667969-26.667969h18.925781c14.722657 0 26.65625 11.941406 26.65625 26.667969zm0 0" fill="#cc2e43"/><path d="m255.847656 401.523438v63.9375h-18.925781v-63.9375c0-14.726563-11.933594-26.667969-26.65625-26.667969h18.914063c14.722656 0 26.667968 11.941406 26.667968 26.667969zm0 0" fill="#cc2e43"/><path d="m334.675781 401.523438v63.9375h-18.925781v-63.9375c0-14.726563-11.929688-26.667969-26.65625-26.667969h18.925781c14.722657 0 26.65625 11.941406 26.65625 26.667969zm0 0" fill="#cc2e43"/><path d="m413.503906 401.523438v63.9375h-18.914062v-63.9375c0-14.726563-11.941406-26.667969-26.664063-26.667969h18.921875c14.722656 0 26.65625 11.941406 26.65625 26.667969zm0 0" fill="#cc2e43"/><path d="m493.082031 401.523438v63.9375h-18.921875v-63.9375c0-14.726563-11.933594-26.667969-26.65625-26.667969h18.914063c14.722656 0 26.664062 11.941406 26.664062 26.667969zm0 0" fill="#cc2e43"/><path d="m504.742188 485.683594h-497.484376c-3.265624 0-5.90625-2.644532-5.90625-5.90625v-20.269532c0-3.261718 2.640626-5.90625 5.90625-5.90625h497.484376c3.265624 0 5.90625 2.644532 5.90625 5.90625v20.269532c0 3.261718-2.640626 5.90625-5.90625 5.90625zm0 0" fill="#bd7c63"/><path d="m504.742188 485.683594h-18.375v-32.082032h18.375c3.265624 0 5.90625 2.644532 5.90625 5.90625v20.269532c0 3.261718-2.640626 5.90625-5.90625 5.90625zm0 0" fill="#ac6a51"/></svg>