<?xml version="1.0" encoding="iso-8859-1"?>
<!-- Generator: Adobe Illustrator 16.0.0, SVG Export Plug-In . SVG Version: 6.00 Build 0)  -->
<!DOCTYPE svg PUBLIC "-//W3C//DTD SVG 1.1//EN" "http://www.w3.org/Graphics/SVG/1.1/DTD/svg11.dtd">
<svg version="1.1" id="Capa_1" xmlns="http://www.w3.org/2000/svg" xmlns:xlink="http://www.w3.org/1999/xlink" x="0px" y="0px"
	 width="376px" height="376px" viewBox="0 0 376 376" style="enable-background:new 0 0 376 376;" xml:space="preserve">
<g>
	<g>
		<g>
			<path d="M358.293,12.866c-1.086-0.95-2.532-1.383-3.961-1.189C299.218,19.14,243.256,22.925,188,22.925
				S76.782,19.14,21.668,11.677c-1.428-0.192-2.874,0.241-3.961,1.189c-1.087,0.949-1.71,2.322-1.71,3.765v198.271
				c0,1.442,0.623,2.815,1.71,3.765c1.087,0.951,2.531,1.381,3.961,1.188c55.113-7.462,111.075-11.247,166.332-11.247
				c55.256,0,111.219,3.785,166.332,11.248c0.224,0.03,0.448,0.046,0.671,0.046c1.202,0,2.373-0.436,3.29-1.235
				c1.087-0.949,1.71-2.321,1.71-3.765V16.631C360.003,15.188,359.38,13.815,358.293,12.866z"/>
			<circle cx="38" cy="270.606" r="37"/>
			<path d="M38,317.606c-12.436,0-23.749-4.861-32.164-12.773C2.17,309.808,0,315.954,0,322.606v41.762h76v-41.762
				c0-6.652-2.17-12.8-5.836-17.773C61.749,312.744,50.436,317.606,38,317.606z"/>
			<circle cx="138" cy="270.606" r="37"/>
			<path d="M138,317.606c-12.436,0-23.749-4.861-32.164-12.773c-3.666,4.975-5.836,11.121-5.836,17.773v41.762h76v-41.762
				c0-6.652-2.17-12.8-5.836-17.773C161.749,312.744,150.436,317.606,138,317.606z"/>
			<circle cx="238" cy="270.606" r="37"/>
			<path d="M238,317.606c-12.436,0-23.749-4.861-32.164-12.773c-3.666,4.975-5.836,11.121-5.836,17.773v41.762h76v-41.762
				c0-6.652-2.17-12.8-5.836-17.773C261.749,312.744,250.436,317.606,238,317.606z"/>
			<circle cx="338" cy="270.606" r="37"/>
			<path d="M370.164,304.832c-8.415,7.912-19.729,12.773-32.164,12.773s-23.749-4.861-32.164-12.773
				c-3.666,4.975-5.836,11.121-5.836,17.773v41.762h76v-41.762C376,315.953,373.83,309.807,370.164,304.832z"/>
		</g>
	</g>
</g>
<g>
</g>
<g>
</g>
<g>
</g>
<g>
</g>
<g>
</g>
<g>
</g>
<g>
</g>
<g>
</g>
<g>
</g>
<g>
</g>
<g>
</g>
<g>
</g>
<g>
</g>
<g>
</g>
<g>
</g>
</svg>
