<svg height="512pt" viewBox="0 -71 512 512" width="512pt" xmlns="http://www.w3.org/2000/svg"><path d="m114.757812 44.136719v99.289062l19.820313-36.347656c3.089844-5.671875 9.03125-9.203125 15.492187-9.203125h.011719c6.457031 0 12.398438 3.523438 15.492188 9.191406l24.636719 45.175782 14.984374-27.484376c3.09375-5.671874 9.039063-9.203124 15.5-9.203124 6.460938 0 12.40625 3.53125 15.5 9.203124l19.820313 36.371094-.015625-116.992187zm79.449219 61.792969c-14.625 0-26.484375-11.855469-26.484375-26.480469 0-14.628907 11.859375-26.484375 26.484375-26.484375s26.484375 11.855468 26.484375 26.484375c-.019531 14.617187-11.863281 26.464843-26.484375 26.480469zm0 0"/><path d="m114.757812 180.304688v5.074218h73.402344l-38.082031-69.851562zm0 0"/><path d="m200.261719 170.679688 8.015625 14.699218h40.847656l-28.433594-52.171875zm0 0"/><path d="m203.035156 79.449219c0 4.875-3.953125 8.828125-8.828125 8.828125s-8.828125-3.953125-8.828125-8.828125 3.953125-8.828125 8.828125-8.828125 8.828125 3.953125 8.828125 8.828125zm0 0"/><path d="m503.171875 0h-494.34375c-4.875 0-8.828125 3.953125-8.828125 8.828125v211.863281c0 4.875 3.953125 8.824219 8.828125 8.824219h494.34375c4.875 0 8.828125-3.949219 8.828125-8.824219v-211.863281c0-4.875-3.953125-8.828125-8.828125-8.828125zm-426.308594 143.828125c2.292969 2.214844 3.214844 5.5 2.40625 8.585937-.808593 3.085938-3.21875 5.496094-6.304687 6.304688-3.085938.804688-6.367188-.113281-8.585938-2.410156l-35.308594-35.308594c-1.65625-1.65625-2.585937-3.898438-2.585937-6.242188 0-2.339843.929687-4.585937 2.585937-6.242187l35.308594-35.308594c3.464844-3.34375 8.96875-3.296875 12.375.109375 3.40625 3.402344 3.453125 8.910156.109375 12.371094l-29.070312 29.070312zm196.792969 41.550781c-.019531 4.136719-1.503906 8.132813-4.1875 11.28125-.105469.140625-.21875.265625-.335938.40625-3.320312 3.78125-8.101562 5.953125-13.132812 5.96875h-141.242188c-9.746093-.011718-17.644531-7.910156-17.65625-17.65625v-141.242187c.011719-9.746094 7.910157-17.644531 17.65625-17.652344h141.242188c9.746094.007813 17.644531 7.90625 17.65625 17.652344zm70.621094-26.480468h-44.140625c-4.875 0-8.828125-3.953126-8.828125-8.828126s3.953125-8.828124 8.828125-8.828124h44.140625c4.875 0 8.824218 3.953124 8.824218 8.828124s-3.949218 8.828126-8.824218 8.828126zm26.480468-35.3125h-70.621093c-4.875 0-8.828125-3.953126-8.828125-8.828126s3.953125-8.828124 8.828125-8.828124h70.621093c4.875 0 8.828126 3.953124 8.828126 8.828124s-3.953126 8.828126-8.828126 8.828126zm26.484376-35.308594h-97.105469c-4.875 0-8.828125-3.953125-8.828125-8.828125s3.953125-8.828125 8.828125-8.828125h97.105469c4.875 0 8.828124 3.953125 8.828124 8.828125s-3.953124 8.828125-8.828124 8.828125zm17.65625-35.3125h-114.761719c-4.875 0-8.828125-3.953125-8.828125-8.828125s3.953125-8.828125 8.828125-8.828125h114.761719c4.875 0 8.824218 3.953125 8.824218 8.828125s-3.949218 8.828125-8.824218 8.828125zm68.03125 68.035156-35.308594 35.308594c-3.464844 3.347656-8.96875 3.300781-12.375-.105469s-3.453125-8.910156-.109375-12.375l29.070312-29.070313-29.070312-29.070312c-3.34375-3.460938-3.296875-8.96875.109375-12.371094 3.40625-3.40625 8.910156-3.453125 12.375-.109375l35.308594 35.308594c1.65625 1.65625 2.585937 3.902344 2.585937 6.242187 0 2.34375-.929687 4.585938-2.585937 6.242188zm0 0"/><path d="m220.691406 317.792969c0 9.75-7.90625 17.65625-17.65625 17.65625s-17.65625-7.90625-17.65625-17.65625 7.90625-17.65625 17.65625-17.65625 17.65625 7.90625 17.65625 17.65625zm0 0"/><path d="m326.621094 317.792969c0 9.75-7.90625 17.65625-17.65625 17.65625s-17.65625-7.90625-17.65625-17.65625 7.90625-17.65625 17.65625-17.65625 17.65625 7.90625 17.65625 17.65625zm0 0"/><path d="m432.550781 317.792969c0 9.75-7.902343 17.65625-17.652343 17.65625-9.753907 0-17.65625-7.90625-17.65625-17.65625s7.902343-17.65625 17.65625-17.65625c9.75 0 17.652343 7.90625 17.652343 17.65625zm0 0"/><path d="m150.070312 317.792969c0-29.25-23.714843-52.964844-52.96875-52.964844-29.25 0-52.964843 23.714844-52.964843 52.964844 0 29.253906 23.714843 52.964843 52.964843 52.964843 29.246094-.023437 52.945313-23.722656 52.96875-52.964843zm-70.621093 0c0-9.75 7.902343-17.65625 17.652343-17.65625 9.753907 0 17.65625 7.90625 17.65625 17.65625s-7.902343 17.65625-17.65625 17.65625c-9.738281-.03125-17.625-7.917969-17.652343-17.65625zm0 0"/></svg>