<svg height="512pt" viewBox="0 0 512 512" width="512pt" xmlns="http://www.w3.org/2000/svg"><path d="m491.914062 165.050781c0-8.699219 3.386719-16.878906 9.539063-23.03125l10.546875-10.542969-131.476562-131.476562-10.542969 10.546875c-6.152344 6.152344-14.332031 9.539063-23.03125 9.539063s-16.878907-3.386719-23.03125-9.539063l-10.546875-10.546875-313.371094 313.371094 10.546875 10.546875c6.152344 6.152343 9.539063 14.332031 9.539063 23.03125s-3.390626 16.878906-9.539063 23.03125l-10.546875 10.542969 131.476562 131.476562 10.542969-10.546875c6.152344-6.148437 14.332031-9.539063 23.03125-9.539063 8.703125 0 16.878907 3.390626 23.03125 9.539063l10.546875 10.546875 313.371094-313.371094-10.546875-10.546875c-6.152344-6.152343-9.539063-14.332031-9.539063-23.03125zm-20.835937 32.316407-273.714844 273.710937c-9.644531-5.859375-20.738281-8.992187-32.3125-8.992187s-22.667969 3.132812-32.316406 8.992187l-91.8125-91.8125c5.859375-9.648437 8.988281-20.742187 8.988281-32.316406s-3.128906-22.667969-8.988281-32.316407l226.839844-226.839843 11.894531-11.890625 34.976562-34.980469c9.644532 5.859375 20.738282 8.992187 32.316407 8.992187 11.574219 0 22.667969-3.132812 32.3125-8.992187l91.816406 91.8125c-5.859375 9.648437-8.992187 20.742187-8.992187 32.316406s3.132812 22.667969 8.992187 32.316407zm0 0"/><path d="m334.804688 154.839844 21.089843-21.09375 22.351563 22.351562-21.09375 21.089844zm0 0"/><path d="m379.503906 199.535156 21.089844-21.089844 22.347656 22.347657-21.089844 21.09375zm0 0"/><path d="m290.109375 110.140625 21.089844-21.089844 22.347656 22.347657-21.089844 21.09375zm0 0"/><path d="m129.246094 366.480469-9.269532-9.273438-32.730468 32.730469 9.269531 9.273438 10.386719-10.386719 26.195312 26.191406 11.957032-11.957031-26.195313-26.191406zm0 0"/><path d="m126.863281 350.3125 11.957031-11.957031 35.464844 35.464843-11.957031 11.957032zm0 0"/><path d="m197.546875 324.527344c.554687 4.710937-.40625 8.714844-3.597656 11.90625-4.964844 4.964844-11.753907 4.863281-17.175781-.558594-5.421876-5.421875-5.523438-12.210938-.558594-17.175781 3.191406-3.191407 7.195312-4.152344 11.90625-3.597657l.8125-14.285156c-8.054688-1.066406-16.0625 1.875-23 8.816406-11.402344 11.398438-12.109375 27.40625-1.21875 38.300782 10.894531 10.890625 26.90625 10.183594 38.304687-1.214844 6.941407-6.941406 9.878907-14.945312 8.816407-23.003906zm0 0"/><path d="m226.324219 250.855469-13.019531 13.023437 1.214843 24.519532-12.867187-12.867188-11.753906 11.753906 35.464843 35.464844 11.753907-11.753906-8.765626-8.765625-.304687-5.671875 20.621094 2.886718 13.832031-13.832031-34.757812-4.964843zm0 0"/><path d="m270.660156 259.417969-4.660156-4.660157 14.996094-15-8.613282-8.613281-14.996093 15-4.15625-4.15625 17.074219-17.074219-9.019532-9.019531-28.828125 28.828125 35.46875 35.46875 29.484375-29.488281-9.019531-9.019531zm0 0"/><path d="m309.675781 186.054688-9.273437-9.273438-32.730469 32.730469 9.273437 9.269531 10.382813-10.386719 26.195313 26.195313 11.957031-11.957032-26.195313-26.195312zm0 0"/></svg>